<svg xmlns="http://www.w3.org/2000/svg" viewBox="0 0 20 20" style="enable-background:new 0 0 20 20" xml:space="preserve" height="20" width="20"><path d="M9.38 0h2.09v1.05H9.38zM5.19 0h2.09v1.05H5.19zM13.56 0h2.09v1.05h-2.09zM9.38 19.23h2.09v1.05H9.38zM5.19 19.23h2.09v1.05H5.19zM13.56 19.23h2.09v1.05h-2.09zM0 0v2.75h1.05v-1.7h1.93V0H1.05zM8.72 8.43c.12-.37.3-.65.55-.83.24-.18.55-.27.92-.27.56 0 .95.13 1.18.38s.36.62.4 1.11h1.8a3.53 3.53 0 0 0-.48-1.53c-.27-.45-.64-.8-1.12-1.06s-1.07-.39-1.78-.39-1.32.16-1.84.49-.92.79-1.21 1.4-.43 1.33-.43 2.16v.51c0 .82.14 1.54.42 2.14.28.6.68 1.07 1.2 1.39.52.33 1.14.49 1.85.49.69 0 1.27-.12 1.76-.37s.87-.59 1.15-1.03.43-.94.46-1.5h-1.79c-.02.32-.09.59-.21.8-.12.21-.29.37-.51.48-.23.1-.51.16-.86.16-.4 0-.72-.09-.96-.28-.24-.18-.41-.47-.52-.84-.11-.38-.16-.85-.16-1.43v-.53c-.01-.59.06-1.07.18-1.45zM17.53 0v1.05h1.7v1.93h1.04V0zM0 8.9h1.05v2.09H0zM0 4.71h1.05V6.8H0zM0 13.08h1.05v2.09H0zM19.23 8.9h1.05v2.09h-1.05zM19.23 4.71h1.05V6.8h-1.05zM19.23 13.08h1.05v2.09h-1.05zM19.23 19.23h-1.94v1.04h2.98v-2.74h-1.04zM1.05 18.18v-.89H0v2.98h2.75v-1.04h-1.7z"/></svg>