<svg xmlns="http://www.w3.org/2000/svg" viewBox="0 0 20 20" style="enable-background:new 0 0 20 20" xml:space="preserve" height="20" width="20"><path d="M2.53 8.04C1.14 8.04 0 9.17 0 10.57s1.14 2.53 2.53 2.53c1.4 0 2.53-1.14 2.53-2.53S3.93 8.04 2.53 8.04zm0 4.02c-.82 0-1.5-.67-1.5-1.5s.67-1.5 1.5-1.5c.82 0 1.5.67 1.5 1.5s-.67 1.5-1.5 1.5zM17.47 8.04c-1.4 0-2.53 1.14-2.53 2.53s1.14 2.53 2.53 2.53S20 11.97 20 10.57s-1.14-2.53-2.53-2.53zm0 4.02c-.82 0-1.5-.67-1.5-1.5s.67-1.5 1.5-1.5 1.5.67 1.5 1.5-.68 1.5-1.5 1.5zM10 8.04c-1.4 0-2.53 1.14-2.53 2.53S8.6 13.1 10 13.1s2.53-1.14 2.53-2.53S11.4 8.04 10 8.04z"/></svg>