<svg xmlns="http://www.w3.org/2000/svg" viewBox="0 0 20 20" style="enable-background:new 0 0 20 20" xml:space="preserve" height="20" width="20"><path d="M12.53 2.53C12.53 1.14 11.4 0 10 0S7.47 1.14 7.47 2.53c0 1.4 1.14 2.53 2.53 2.53s2.53-1.13 2.53-2.53zm-4.03 0c0-.82.67-1.5 1.5-1.5s1.5.67 1.5 1.5c0 .82-.67 1.5-1.5 1.5s-1.5-.67-1.5-1.5zM12.53 10c0-1.4-1.14-2.53-2.53-2.53S7.47 8.6 7.47 10 8.6 12.53 10 12.53s2.53-1.13 2.53-2.53zM8.5 10c0-.82.67-1.5 1.5-1.5s1.5.67 1.5 1.5-.67 1.5-1.5 1.5-1.5-.68-1.5-1.5zM12.53 17.47c0-1.4-1.14-2.53-2.53-2.53s-2.53 1.14-2.53 2.53S8.6 20 10 20s2.53-1.14 2.53-2.53z"/></svg>